<svg xmlns="http://www.w3.org/2000/svg" viewBox="0 0 64 64"><g id="Layer_32" data-name="Layer 32"><path d="M35,54a2,2,0,0,0,0-4H21a2,2,0,0,0,0,4,2,2,0,0,0,0,4H35a2,2,0,0,0,0-4Z" style="fill:#b3b3b3"/><path d="M37,56a2,2,0,0,0-2-2,2,2,0,0,0,0-4H24a2,2,0,0,0,0,4,2,2,0,0,0,0,4H35A2,2,0,0,0,37,56Z" style="fill:#ccc"/><path d="M48.585,27.168A21.031,21.031,0,0,1,37,41.952V47a3,3,0,0,1-3,3H22a3,3,0,0,1-3-3V41.952A20.993,20.993,0,0,1,37.021,4.031Z" style="fill:#66c3e9"/><path d="M37,47V41.952A21.031,21.031,0,0,0,48.585,27.168L37.021,4.031a20.861,20.861,0,0,0-7.4-1.961A20.97,20.97,0,0,0,22,41.952V47a3,3,0,0,0,3,3h9A3,3,0,0,0,37,47Z" style="fill:#8adef9"/><path d="M17.189,23.986A2.7,2.7,0,0,0,22,22.3,2.3,2.3,0,0,1,24.3,20a3.18,3.18,0,0,1,2.646,1.416A3.556,3.556,0,0,0,29.9,23,2.1,2.1,0,0,0,32,20.9v-.9L31.019,15.7A5.979,5.979,0,0,0,26.013,13a3.013,3.013,0,0,1-1.187-5.783l9.725-4.168A20.974,20.974,0,0,0,7.239,20H8.9A10.623,10.623,0,0,1,17.189,23.986Z" style="fill:#82ab00"/><path d="M28.33,42.116A4.7,4.7,0,0,0,24.3,35a4.6,4.6,0,0,1-3.682-1.841A5.4,5.4,0,0,0,16.3,31a3.724,3.724,0,0,1-3.33-2.058A3.513,3.513,0,0,0,9.829,27H7.4A21.023,21.023,0,0,0,19,41.952V46h2.47A8,8,0,0,0,28.33,42.116Z" style="fill:#82ab00"/><path d="M37.826,28H33.774a2.774,2.774,0,0,0-.6,5.483h0a8.719,8.719,0,0,1,6.663,6.829,20.984,20.984,0,0,0,8.749-13.144l-2.244-4.489-6.324,4.7A4.15,4.15,0,0,1,37.826,28Z" style="fill:#8dbf00"/><path d="M17.189,23.986A2.7,2.7,0,0,0,22,22.3,2.3,2.3,0,0,1,24.3,20a3.18,3.18,0,0,1,2.646,1.416A3.556,3.556,0,0,0,29.9,23,2.1,2.1,0,0,0,32,20.9v-.9L31.019,15.7A5.979,5.979,0,0,0,26.013,13a3.013,3.013,0,0,1-1.187-5.783l9.725-4.168a21.01,21.01,0,0,0-4.886-.982A20.974,20.974,0,0,0,10.225,20.09,10.618,10.618,0,0,1,17.189,23.986Z" style="fill:#8dbf00"/><path d="M28.33,42.116A4.7,4.7,0,0,0,24.3,35a4.6,4.6,0,0,1-3.682-1.841A5.4,5.4,0,0,0,16.3,31a3.724,3.724,0,0,1-3.33-2.058,3.51,3.51,0,0,0-2.566-1.89A21.023,21.023,0,0,0,22,41.952v4.013A7.984,7.984,0,0,0,28.33,42.116Z" style="fill:#8dbf00"/><path d="M23,58h0a4,4,0,0,0,4,4h2a4,4,0,0,0,4-4h0" style="fill:#b3b3b3"/><circle cx="44" cy="15" r="13" style="fill:#fbcf43"/><path d="M44,2a12.937,12.937,0,0,0-8.133,2.867A12.992,12.992,0,0,0,54.133,23.133,12.992,12.992,0,0,0,44,2Z" style="fill:#fedd5e"/><path d="M42,18.929A7,7,0,0,1,36,12V9h3a7,7,0,0,1,5.941,3.3Z" style="fill:#719301"/><path d="M39,9H36l7.207,7.207L44.941,12.3A7,7,0,0,0,39,9Z" style="fill:#82ab00"/><path d="M52,11H49a7,7,0,0,0-7,7v3h3a7,7,0,0,0,7-7Z" style="fill:#8dbf00"/><path d="M42,21h3a7,7,0,0,0,7-7V11Z" style="fill:#a6d305"/><path d="M36.723,53H19.277A1.994,1.994,0,0,0,21,54a1.994,1.994,0,0,0-1.723,1H36.723A1.994,1.994,0,0,0,35,54,1.994,1.994,0,0,0,36.723,53Z" style="fill:#b3b3b3"/><path d="M18,42.573V47a3.971,3.971,0,0,0,1.08,2.714A2.975,2.975,0,0,0,18.766,54,3,3,0,0,0,21,59h1.1A5,5,0,0,0,27,63h2a5.008,5.008,0,0,0,4.9-4H35a3,3,0,0,0,2.234-5,2.975,2.975,0,0,0-.314-4.286A3.971,3.971,0,0,0,38,47V42.573A22.1,22.1,0,0,0,49.441,27.9,13.993,13.993,0,1,0,36.968,2.914,21.8,21.8,0,0,0,28,1,21.986,21.986,0,0,0,18,42.573ZM8.658,28H9.829a2.5,2.5,0,0,1,2.247,1.389A4.7,4.7,0,0,0,16.3,32a4.416,4.416,0,0,1,3.518,1.759A5.631,5.631,0,0,0,24.3,36a3.7,3.7,0,0,1,3.172,5.6,7.036,7.036,0,0,1-6,3.4H20V41.952a1,1,0,0,0-.57-.9A20.131,20.131,0,0,1,8.658,28ZM29,61H27a2.963,2.963,0,0,1-2.818-2h7.634A3,3,0,0,1,29,61Zm6-4H21a1,1,0,0,1,0-2H35a1,1,0,0,1,0,2Zm0-4H21a1,1,0,0,1,0-2H35a1,1,0,0,1,0,2Zm1.57-11.951a1,1,0,0,0-.57.9V47a2,2,0,0,1-2,2H22a2,2,0,0,1-2-2h1.471a9.043,9.043,0,0,0,7.717-4.37A5.7,5.7,0,0,0,24.3,34a3.621,3.621,0,0,1-2.882-1.441A6.428,6.428,0,0,0,16.3,30a2.71,2.71,0,0,1-2.436-1.506A4.487,4.487,0,0,0,9.829,26H8.236A19.538,19.538,0,0,1,8,23c0-.675.036-1.342.1-2h.8a9.573,9.573,0,0,1,7.512,3.611A3.7,3.7,0,0,0,23,22.3,1.3,1.3,0,0,1,24.3,21a2.175,2.175,0,0,1,1.814.971A4.549,4.549,0,0,0,29.9,24a3.085,3.085,0,0,0,2.457-1.233A14.1,14.1,0,0,0,36.826,27H33.774a3.774,3.774,0,0,0-.818,7.459,7.7,7.7,0,0,1,5.728,5.419A19.806,19.806,0,0,1,36.57,41.049ZM40.4,38.655a9.714,9.714,0,0,0-7.013-6.148A1.775,1.775,0,0,1,33.774,29h4.052a5.165,5.165,0,0,0,2.308-.555,13.657,13.657,0,0,0,7.053.175A20.1,20.1,0,0,1,40.4,38.655ZM56,15A12,12,0,1,1,44,3,12.013,12.013,0,0,1,56,15ZM30.109,13.329A6.967,6.967,0,0,0,26.013,12a2.013,2.013,0,0,1-.793-3.864L34.6,4.115c.141.05.279.106.418.158A13.986,13.986,0,0,0,30.109,13.329ZM28,3a20.237,20.237,0,0,1,3.44.295l-7.008,3A4.013,4.013,0,0,0,26.013,14a4.972,4.972,0,0,1,4.042,2.08A13.875,13.875,0,0,0,31,20.166V20.9A1.1,1.1,0,0,1,29.9,22a2.552,2.552,0,0,1-2.128-1.139A4.172,4.172,0,0,0,24.3,19,3.3,3.3,0,0,0,21,22.3a1.7,1.7,0,0,1-3.03,1.064A11.565,11.565,0,0,0,8.9,19H8.4A20.034,20.034,0,0,1,28,3Z"/><path d="M35,9v3a8.041,8.041,0,0,0,6,7.742V21a1,1,0,0,0,1,1h3a8.009,8.009,0,0,0,8-8V11a1,1,0,0,0-1-1H49a7.948,7.948,0,0,0-3.79.957A7.953,7.953,0,0,0,39,8H36A1,1,0,0,0,35,9Zm2,3v-.586l4.329,4.329a8.009,8.009,0,0,0-.312,1.915A6.032,6.032,0,0,1,37,12Zm8,8h-.586L51,13.414V14A6.006,6.006,0,0,1,45,20Zm4.586-8L43,18.586V18a6.006,6.006,0,0,1,6-6Zm-6,.132a8.012,8.012,0,0,0-1.374,1.662L38.414,10H39A5.961,5.961,0,0,1,43.582,12.132Z"/></g></svg>